<svg xmlns="http://www.w3.org/2000/svg" width="597.655" height="213.076"><path d="M315.822 128.532c-3.123 14.64-5.284 19.584-10.78 19.584-5.282 0-5.724-5.18-2.637-19.693 3.062-14.415 5.707-19.583 10.984-19.583 5.506 0 5.554 4.962 2.432 19.692m-.073-31.36c-20.577 0-27.422 13.64-31.216 31.47-3.795 17.822-3.855 31.148 17.92 31.148 20.575 0 27.42-13.653 31.214-31.482 3.795-17.828 3.868-31.136-17.92-31.136m-62.254 1.55l-12.673 59.507h17.83l7.184-33.77c1.67-7.814 6.905-10.785 14.064-10.785 1.75 0 3.16.127 4.86.454l3.558-16.746c-1.053-.212-1.937-.212-2.814-.212-7.492 0-12.987 4.623-16.407 9.907h-.223l1.76-8.36h-17.138zm-35.658 11.443c6.712 0 4.987 9.126 2.954 18.7-2.282 10.784-4.152 17.926-10.64 17.926-6.05 0-4.762-8.145-2.517-18.693 2.457-11.547 4.914-17.932 10.203-17.932M196.383 98.72L179.63 177.59h17.812l5.5-25.835h.225c1.592 6.385 6.64 8.037 11.595 8.037 14.633 0 20.092-13.326 24.026-31.808 4.732-22.217.18-30.81-11.807-30.81-7.94 0-12.575 4.726-14.747 8.8h-.224l1.536-7.25h-17.163zm-95.6 40.585c-1.254 5.942-5.133 8.145-8.88 8.145-3.285 0-4.55-2.862-3.545-7.6.696-3.287 1.985-5.157 4.15-6.59 1.938-1.32 4.383-1.43 10.61-4.395-.508 2.41-1.27 5.507-2.336 10.44m.993-30.465c3.958 0 5.113 2.31 4.357 5.943-.98 4.508-2.16 5.398-7.843 6.814-5.242 1.313-12.075 2.42-16.99 4.84-4.92 2.428-9.004 8.256-10.48 15.185-2.748 12.873 1.972 18.168 11.982 18.168 5.943 0 12.213-3.093 15.747-8.388h.235c-.393 2.33-.69 4.727-.466 6.827h17.162c-1.543-2.628-.315-8.353.64-12.862l6.5-30.585c2.664-12.54-2.752-17.61-17.386-17.61-7.377 0-12.648.99-17.423 3.86-4.8 2.856-8.26 7.807-10.106 15.946h15.85c1.198-5.163 3.25-8.14 8.218-8.14M28.27 144.588l4.508-21.224h5.95c5.718 0 8.968 3.292 7.34 11.008-1.187 5.477-4.71 10.216-12.177 10.216h-5.62zM39.15 93.34h5.193c6.7 0 7.964 4.388 7.105 8.455-1.187 5.616-4.6 9.24-10.984 9.24h-5.066l3.752-17.694zm25.618 43.108c3.413-16.068-4.745-18.603-10.38-19.47l.05-.223c7.776-1.416 14.142-8.575 16.097-17.72C73.3 85.953 65.725 79.69 52.307 79.69H23.585l-16.69 78.54H34.18c21.883 0 28.62-12.533 30.586-21.78m208.8 62.213c-.533 2.506-2.79 3.535-4.364 3.535-1.573 0-1.918-1.452-1.525-3.207.41-2.028 1.597-3.172 4.09-3.68.757-.163 1.804-.563 2.754-1.156l-.956 4.51zm.823-16.527c-4.405 0-8.387 1.792-9.525 7.045l-.12.562h5.295l.12-.63c.382-1.802 1.574-2.964 3.36-2.964 1.948 0 2.493 1.047 2.11 2.79-.313 1.52-1.052 2.202-2.903 2.662l-3.498.902c-4.292 1.095-6.398 2.85-7.306 7.147-.64 3.044.067 6.542 4.12 6.542 2.828 0 4.625-.594 6.47-2.99h.092c.012.768-.013 1.664.205 2.396h5.61c-.325-1.32-.223-2.306.225-4.43l2.554-12.02c.89-4.108.18-7.013-6.81-7.013m-12.908 8.818c1.138-5.367-.932-8.817-6.33-8.817-5.392 0-9.828 2.64-11.813 12.02-1.962 9.192.332 12.036 6.184 12.036 6.215 0 9.44-3.372 10.68-9.375h-5.585c-.793 3.722-2.022 5.38-3.99 5.38-2.63 0-2.643-2.36-1.44-7.982 1.115-5.277 2.13-7.837 5-7.837 2.227 0 2.154 2.396 1.682 4.575h5.61zm-29.726 14.646h5.876l4.872-22.864h-5.89l-4.858 22.864zm12.4-30.677h-5.864l-1.06 4.998h5.847l1.076-5zm-9.75 7.298l-1.04-.085c-2.42 0-4.388 1.453-6.052 3.643h-.097l.666-3.044h-5.617l-4.86 22.864h5.853l2.928-13.737c.666-3.052 3.17-4.123 5.217-4.123.587 0 1.216.055 1.815.097l1.186-5.616zm-22.682 9.338h-5.99l.186-.89c.448-2.112 1.64-4.52 3.983-4.52 2.42 0 2.42 1.948 1.82 5.41m-.755-9.423c-7.91 0-10.294 5.7-11.62 11.795-1.204 5.72-2.245 12.26 6.264 12.26 5.507 0 8.69-2.988 10.034-8.308h-5.26c-.943 2.844-2.07 4.315-4.042 4.315-2.16 0-2.33-2.65-1.75-5.313l.388-1.84h11.608l.272-1.307c1.49-7.02.95-11.602-5.894-11.602m-17.847 0c-2.777 0-5.167 1.247-6.547 3.643h-.097c-.145-2.323-1.822-3.643-4.49-3.643-2.476 0-4.485.86-6.41 2.94h-.084l.496-2.34h-5.61l-4.847 22.863h5.853l3.19-15.045c.568-2.65 2.02-3.932 3.915-3.932 1.652 0 2.05 1.095 1.652 3.007l-3.395 15.97h5.864l3.194-15.044c.563-2.65 2.022-3.932 3.885-3.932 1.658 0 2.07 1.095 1.676 3.007l-3.413 15.97h5.864l3.534-16.61c.92-4.425-.368-6.852-4.23-6.852m-34.186 12.02c-1.192 5.682-2.457 8.042-4.847 8.042-2.88 0-2.42-3.377-1.43-8.043.994-4.672 1.962-8.006 4.85-8.006 2.383 0 2.63 2.324 1.427 8.006m-.58-12.02c-6.724 0-9.902 4.207-11.572 12.02-1.676 7.964-.623 12.152 6.457 12.037 6.71 0 9.9-4.207 11.583-12.038 1.664-7.94.61-12.14-6.47-12.02m-10.373.086l-1.053-.085c-2.427 0-4.387 1.453-6.052 3.643h-.084l.648-3.044h-5.61l-4.86 22.864h5.865l2.93-13.737c.64-3.052 3.17-4.123 5.203-4.123.588 0 1.217.055 1.804.097l1.21-5.616zm-21.478 2.215c-.653 3.092-2.614 4.55-5.047 4.55h-2.717l1.96-9.222h2.555c3.056 0 3.885 1.702 3.25 4.673m-.26-9.187H115.53l-6.45 30.35h6.124l2.572-12.128h3.274c5.78 0 10.25-2.832 11.595-9.108.962-4.557-.2-9.114-6.403-9.114m-34.114 18.906c-1.192 5.683-2.47 8.043-4.835 8.043-2.88 0-2.445-3.377-1.44-8.043.992-4.672 1.972-8.006 4.847-8.006 2.396 0 2.657 2.324 1.428 8.006m-.58-12.02c-6.7 0-9.902 4.207-11.56 12.02-1.688 7.964-.623 12.152 6.457 12.037 6.712 0 9.9-4.207 11.56-12.038 1.7-7.94.623-12.14-6.458-12.02m-20.02 12.02c-1.052 4.98-2.118 7.523-4.66 7.523-2.596 0-2.553-2.542-1.488-7.523 1.04-4.974 2.105-7.534 4.695-7.534 2.536 0 2.506 2.56 1.453 7.534m1.404-12.02c-2.294 0-4.104.89-5.816 3.01h-.09l.52-2.41H61.93l-6.446 30.344h5.852l2.058-9.622h.085c.834 1.828 2.135 2.735 4.326 2.735 4.83 0 7.788-3.535 9.592-12.038 1.797-8.49.333-12.02-4.466-12.02m-20.776.6l-3.22 15.148c-.545 2.572-1.918 3.795-3.92 3.795-1.726 0-2.313-.884-1.823-3.19l3.36-15.753h-5.865l-3.607 16.946c-.95 4.502.78 6.51 4.437 6.51 2.47 0 4.81-1.028 6.523-3.273h.085l-.58 2.68h5.62l4.86-22.863h-5.87zm-13.484-.514l-1.047-.085c-2.42 0-4.393 1.453-6.04 3.643h-.09l.635-3.044h-5.592l-4.865 22.864h5.87l2.923-13.737c.648-3.052 3.165-4.123 5.198-4.123.606 0 1.217.055 1.822.097l1.186-5.616zm-28.16 11.517h4.038l-.66 3.08c-.696 3.304-3.365 4.86-4.823 4.86-3.522 0-3.226-4.6-1.677-11.898 1.604-7.56 3.45-10.61 6.433-10.61 2.464 0 2.875 2.845 2.397 5.09h5.864c1.313-6.154-.678-9.604-7.39-9.604-7.818 0-11.31 5.23-13.47 15.438-2.24 10.477-1.955 16.1 5.567 16.1 2.858 0 5.163-1.03 7.112-3.414h.073l-.587 2.82h4.502l3.486-16.358H11.47l-.957 4.497zm141.577-74.898c1.228-5.79 4.738-8.406 8.133-8.406 3.286 0 4.612 2.513 3.698 6.78l-8.58 40.34h17.73l9.412-44.28c2.408-11.372-1.882-16.39-11.94-16.39-6.56 0-12.4 3.257-16.026 8.516h-.224l1.5-6.996h-17.07l-12.577 59.15h17.708l8.236-38.713z" fill="#407a45"/><path d="M517.27 48.925C476.32 89.12 439.786 133.487 406.92 180.49l.024.038c58.527-50.866 122.205-95.8 190.71-132.233v-.078c-26.79-1.023-53.6-.81-80.385.708" fill="#a3c23d"/><path d="M552.364 198.518l.036-.036c-8.738-32.444-17.362-64.936-25.913-97.483-21.11 13.652-41.758 27.958-61.947 42.955 29.55 17.726 58.78 35.966 87.824 54.563m-169.44 8.49h.037c35.508-58.4 76.69-113.314 124.524-162.225C501.716 29.848 489.85 0 489.85 0c-16.22 18.3-30.533 38.078-43.75 58.63-25.484 5.84-50.648 13.15-75.006 22.767 0 0 30.92 20.988 46.11 31.82-12.86 29.715-33.087 90.16-34.28 93.792" fill="#407a45"/></svg>