<svg xmlns="http://www.w3.org/2000/svg" width="400" height="88.477"><g fill="#0076c0" fill-rule="evenodd"><path d="M0 0v88.473h81.498c27.807-1.127 47.56-10.574 47.56-22.65 0-10.026-13.274-18.023-32.614-21.188 16.906-2.985 29.425-11.51 29.425-21.188C125.87 11.204 105.675 0 81.5 0H0zm51.078 21.985h14.347c1.604 0 3.04-.03 3.853.132 10.07.55 14.68 3.925 14.68 9.5 0 6.525-5.02 10.605-13.684 10.958h-.996v5.18h.398c10.46.546 18.133 4.273 18.133 10.43 0 5.554-7.664 10.6-18.532 11.69h-18.2v-47.89zM141.963.02v88.457h64.856c1.02 0 3.817-.012 7.663-.203 20.554-.558 72.723-6.515 72.723-42.16 0-41.61-46.528-45.496-72.723-45.725h-7.664L141.962.02zm52.982 28.272h11.874c1.62 0 4.436-.008 7.663.35 8.26.95 19.132 4.454 19.132 17.47 0 13.173-10.475 16.506-19.132 17.25-3.227.383-5.633.387-7.664.387h-11.875V28.29zM297.67 88.47h53.983V58.743h42.303v-20.07h-42.303V26.237H400V.383H297.67V88.47z"/></g></svg>