<svg xmlns="http://www.w3.org/2000/svg" width="400" height="171.522"><path d="M96.517 117.258s1.42.7 2.055.814c.626.094 1.868.594 1.868.594l-.45.282s-1.136.136-2.127.136c-.96 0-2.108-.23-2.108-.23l-1.628-.386.324-.918.44-.887-.97-.177H92.55l-.595-.073H4.862V.008H0v120.965h128.915v-4.56H95.682l.835.845z" fill="#004a31"/><path d="M95.62 107.103c-.22.522 0 2.004-.386 2.118-.344.106.595 1.493.595 1.493l-.252.846h33.473v-4.55H95.684c-.042.04-.042.072-.063.093M10.877 23.732c.136-.22.72-.804 1.013-.92.23-.072.553-.687.95-.906.416-.178.594-.7.594-.7s-.595-.073-.908.053c-.334.113-.668.145-.668.145s-.26-.313-.313-.532c-.03-.21-.74-.105-.74-.105l-.314-.323s.085-.428.586-.72c.47-.26-.052-.69-.303-.574-.26.074-.97.397-.74.22.083-.042.02-.073 0-.125v5.134l.323-.148s.386-.28.52-.5M11.112 15.3c.26-.094.856-.094.856-.094l.667-.24s.21-.24.992-.042l.02-.574s.658-.803.898-.97c.24-.188-.45-.522-.45-.522l-1.084.365-1.126.073-.615-.27s-.064-.366-.033-.585c.052-.23.71-.584.71-.584s0-.354-.052-.563c-.01-.21.354-.626.354-.626l.584.146.23-.46c.24-.47.573-.218.573-.218l.543.5.23.376.47-.04V7.912c-.21-.063-.47-.105-.47-.105s-.168-.522.177-.647c.135-.062.23-.145.292-.28V.15h-4.843v16.433c.052-.083.094-.188.178-.24.428-.313.626-.93.897-1.043M14.877 111.562H88.96c-.032 0-.032-.01-.032-.01-.135-.324-.438-1.22-.438-1.22s.438-1.087.032-1.504c-.366-.376.156-1.617.156-1.617v-.208h-73.8V21.88c-.095.093-.21.177-.293.24-.26.167-.95.27-1.524.49-.594.21-1 .897-1.522 1.325-.522.45-.512.51-1.21.678-.115.02-.2.073-.293.105V111.562h4.842z" fill="#004a31"/><path d="M24.868 102.167H87.17c-.187-.428-.427-1.002-.427-1.18 0-.302.04-1.408.407-1.804.135-.178.167-.877.146-1.586H24.868V20.81c-.02-.072-.084-.145-.084-.145s-1.753-.772-2.045-.95c-.314-.177-1.096-.49-1.483-.667-.365-.188-.553-.22-1 .135-.116.042-.158.063-.24.146V102.166h4.85zM20.568 4.178c-.313.052.292-.334.7-.532.385-.188.583.27.583.27s.575-.27.826-.364c.24-.105.323.292.323.292.103.042.27.104.396.146.22.094.354.22.438.386.062.094.052.21.052.303 0 .155.094.207.188.312.188.135.355.292.532.407.104.072.177.103.26.145V.12h-4.85V4.5c.24-.103.844-.353.552-.322M128.736 97.597h-28.694c.03.073.104.135.125.167.282.302.803.51.94 1.022.145.48.145.793-.272 1.304-.512.49-2.077.898-2.703.992-.428.062-.615.7-.73 1.085h31.334v-4.57zM31.2 8.253c0 .053 0 .053-.05.053.113.02.49.198.593.167.02 0 .053.03.084.083-.03 0-.063.03-.063.03.115.106.094.283.23.356.136.084.344.104.49.178-.03-.105.042-.23.136-.272.052-.125.136-.208.167-.292.062-.167.156-.323.198-.49.01-.063.042-.2.104-.292.02-.105.02-.084.146-.084.354 0 .584.376.886.177.126-.062.2-.104.387-.146.113-.03.26-.05.385-.124V.116h-4.852v7.46c.167.166.375.29.553.375.22.116.427.19.605.303M128.864 88.19h-19.857c-.344.23-.668.44-.76.533-.24.293-.294 1.21-.283 1.618.042.408.073 1.305.073 1.305s-.073.563-.24 1.106h21.067v-4.56zM33.978 9.247c.313.042.532-.042.72-.198.073 0 .146-.033.198-.064V8.39c-.104.106-.23.22-.323.262-.146.073-.282.073-.418.094-.198.094-.51.417-.177.5" fill="#004a31"/><path d="M34.895 92.746h51.722c-.094-.25-.104-.543-.104-.825-.032-.666.01-1.282.25-2.075.084-.323.073-.98 0-1.66H34.895V45.01c-.167-.335-.49-.606-.49-.606l-.564-.334s-.813-.47-.95-.678c-.134-.198-.76-.772-.896-.918-.136-.26-.115-1.023-.115-1.023s-.533-.562-.68-.76c-.114-.2-.604-.783-.563-1.044.042-.324.042-.835.042-.835s0-.948-.105-1.24c-.03-.293.104-.668.156-1.023.127-.355.356-2.337.742-2.62.386-.375.47-.802.47-.802l.407-.564s-.064-.928-.294-1.157c-.24-.25-.97-1.315-1.262-1.482-.292-.155-.522-1.24-.75-1.74v64.566h4.85z" fill="#004a31"/><path d="M40.188 50.44l1.88 3.16v1.055l-1.994-1.67V83.39h46.192c-.094-.76-1.283-1.064-1.94-1.367-.616-.313-2.14-.584-2.65-1.106-.523-.5-1.69-1.638-1.858-2.013 0-.02-.02-.053-.052-.094h-34.82V53.434l-1.18-.5-.604-.325.084-.512-.052-.563s-.69-.543-.825-.752c-.126-.208-1.002-.95-1.002-.95s-.72-.48-.846-.677c-.125-.2-.208-.532-.334-.71-.01-.073-.062-.104-.114-.156v1.91c.094.072.167.156.167.156l-.052.083zM40.952 8.987c.052.063 0 .136.052.22.084.187.533.302.762.312.104.02.21.05.292.02.115 0 .188-.073.25-.063.063 0 .105.094.157.105.063.052.146.083.23.146.115.094.23.115.313.188 0-.032-.063-.032-.063-.073.063.04.105.094.146.146 0-.053-.06-.053-.082-.074.146.188.313.365.615.25.147 0 .147-.062.24-.146.157-.083.094 0 .157.104.104.084.313.2.188.303-.042.104-.21.115-.25.177-.136.084-.157.21-.324.272-.146.094-.313.125-.51.167.03.146.03.28.166.354.062.053.125.053.198.105.042.04.042.104.073.114.105.094.105.094.24.094.178.02.178.084.303.167.167.105.522 0 .72-.052.053-.01.063-.03.126-.03V.117h-4.874v8.525c.042 0 .135.01.23.03.26.053.51.095.646.314M129.017 78.807h-12.375v.073s-.02 2.118-.365 2.91c-.136.418-.365.97-.637 1.597h13.377v-4.58zM128.717 74.007v-4.58h-19.095l1.805.636 2.504.26s1.39.324 1.87.407c.5.136 1.053.908 1.335 1.326.25.396 1.492.313 1.867.51.366.19.95 1.18.95 1.18s-.03.083-.136.26h8.9z" fill="#004a31"/><path d="M54.938 74.007h20.92c-.343-.344-.656-.637-.782-.804-.28-.438-.563-1.2-.855-1.523-.23-.303-.04-1.398-.04-1.398l.02-.856H54.938V57.823h-.7l-2.19-.313s-.626-1.67-1.127-1.972c-.27-.156-.614-.323-.844-.417v18.886h4.862zM54.026 23.513c.23 0 .417 0 .657.073.073.03.178.073.25.135v-5.936c-.02.03-.062.052-.072.073-.49.355-.855.75-1.19 1.23 0-.02.022-.05.022-.082-.146-.052-.23.24-.292.323-.146.26-.48.48-.657.804-.115.26-.053.5-.24.75-.147.22-.178.43-.147.658.063.115.105.24.334.24.105 0 .23-.052.324-.125.073-.052.125-.135.24-.156 0 .02-.03.02-.03.04.155.063.113.24.176.345.094.083.22.146.27.292 0 .01.053.365.106.323-.01.042-.053.084-.084.115.23.146.125.334.03.543-.145.28 0 .344.304.355M50.322 11.66h-.03c.103-.05.218-.05.354 0 .375.116.667.22 1.033.377.134.063.27.094.385.125.26.052.46.178.73.073.27-.073.407-.375.595-.522.156-.104.376-.417.615-.417.02.063 0 .136-.083.188-.104.177-.104.323-.303.438h.052c-.053.063-.053.146 0 .21.25-.147.344.228.333.364-.062.177-.47.407-.28.563-.18.125.05.28.197.23.24-.032.45-.272.553-.43.136-.187.26-.406.386-.625.012-.062.053-.073.074-.135V.11h-4.852v11.593c.02-.02.042-.02.073-.02.042 0 .105-.022.167-.022M51.564 52.787l.532 1.033 1.294-1.21s.532-1.075.772-1.472c.136-.313.428-.563.773-.71v-6.062l-.45.136s-.458.198-.542.334c-.104.146-.062.146-.323.27-.24.18-.365.19-.365.19l-.658-.084-1.012-.157-.417.23s.073-.073-1.096.553v6.71c.292.24.626.437.783.48.355.072.71-.24.71-.24M91.855 60.827l1.367.188 1.4.814 1.428.896 1.617.105h.887l2.118.606s1.534.7 2.056 1.116c0 0 .052.032.052.053h26.054v-4.58h-37.27c.177.062.365.124.51.197 1.148.5-.22.605-.22.605" fill="#004a31"/><path d="M64.974 64.608H75.2c.198-.93-2.327-1.273-2.463-1.524 0 0-.824-.135-1.064-.438-.21-.22-1.408-1.158-1.408-1.158-.606-.136-2.672.26-2.672.26l-.448.68s-1.16-.116-1.607-.158c-.407-.062-.93-.47-.93-.47l-1.282.032-.637-.375-1.315-.178-.908-.24-.198-.92-.19-.145v4.632h4.894zM83.316 60.48c.376-.04.657-.364.657-.364.02 0 .115-.052.167-.094h-1.544l.063.21s.312.3.656.25M71.256 60.338l.71.198h.03l.835.564.72.03s1.326-.646 2.328-1.105H70.64l.616.313z" fill="#004a31"/><path d="M61.48 55.416s.563.125.95.115c.364 0 .134.48.134.48l.074 1.107s0 .45.083.824c.053.335-.24 1.347-.24 1.347s.293.167.554.47c.24.334.532.438 1.21.678.7.24.96.5.96.5s1.21 0 1.492-.04c.313-.053.94-.67.94-.67l1.24-.207h-3.9V35.925c-.064.073-.19.136-.21.136-.177.042-.553.314-.678.418-.157.063-.25.292-.282.397-.062.125-.396.208-.542.26-.178.042-.366.042-.533.178-.166.083-.24.355-.24.553 0 .188-.113.45-.165.51-.053.116.166.398.24.585.03.2.125.325.125.325s-.355.814-.46.918c-.072.042-.46.365-.46.365s-.698.74-.906.877c-.126.062-.5.428-.783.72V55.27l.345-.167 1.054.313zM60.256 28.602c.042.136.042.136.22.094.187-.052.406-.083.594-.167.282-.19.45-.45.68-.637.25-.24.823-.585.52-.95-.083-.135-.25-.22-.28-.407-.043-.125.03-.292-.064-.375-.157-.218-.45-.302-.553-.52-.02-.116.01-.116.146-.25.103-.158.26-.273.47-.408.103-.063.24-.073.28-.157.052-.03 0-.03 0-.062.084-.115.21-.25.303-.293.083-.094.198-.104.282-.208.073-.126.167-.282.27-.418.24-.26.543-.74.314-1.085-.116-.157-.21-.345-.366-.48-.052-.084-.146-.105-.178-.22-.04-.094.136-.23.126-.334-.063-.115-.334-.094-.334-.188-.053-.114.302-.323.386-.396-.032-.115.01-.292.156-.397.042-.03.115-.083.167-.146.063-.095.042-.21.094-.314 0-.094.074-.167.116-.27 0-.105-.084-.19-.167-.23-.168-.188-.366-.366-.2-.606.105-.23.282-.438.49-.647.074-.114.178-.188.2-.323.05-.063.05-.136.062-.25.094-.136.365-.105.522-.053.094.032.177.032.26.105.053.062.053.125.136.167.01 0 .03 0 .063.02V.105H60.08V12.18c.072-.043.103-.064.176-.106.22-.208.26-.438.345-.667.063-.21.116-.46.21-.658.02-.105.166-.25.26-.324.063-.073.2-.104.282-.146.125-.157-.042-.157-.146-.282-.03-.115 0-.115.063-.198.02-.115.103-.26.28-.22.125 0 .178.147.272.24.104.063.125.022.27.063.095.052.137.115.23.178.167.074.45.105.48.293.053.177-.187.313-.27.428-.116.157-.116.355-.303.48-.075.063-.283.168-.283.282 0 .02.177.146.208.167.074.062.324.145.334.187.072.084-.074.26-.136.313-.084.188-.2.25-.355.365-.2.178-.147.45-.408.564-.156.05-.46.01-.584-.074-.084 0-.084-.042-.136-.105-.27-.103-.355.18-.574.23-.042 0-.135 0-.22-.04v15.118c.053.02.085.032.105.094.073.032.042.167.073.24M74.944 55.202h54.02v-4.57h-54.02V26.56c-.187.167-.323.313-.396.386-.21.2-.887.637-1.596.814-.752.146-1.764.146-1.764.146s-.605.136-1.095.272v2.848c0 .042.052.042.052.042.344.094.563.334.688.5.126.136.25.366.45.45.187.052.72-.387.72-.387l.406-.228.114.27s0 .126-.22.22c-.208.052-.187.188-.5.428-.282.21-.49.407-.71.46-.167.062-.7.062-.814.156-.02.02-.135.02-.187.02v22.246h4.85zM71.1 19.89l.52-.105s.094.293.053.606c-.052.324.04.877.073.908.042.094.167.188.302.146.22-.03.428.334.69.44.26.113.396.312.385.5-.03.198-.22.313-.26.71-.084.375.563.406.77.52.22.063 1.128.19 1.18.23.01.032.188.282.136.418V.075h-4.863v21.317c.104-.208.47-.918.553-1.033.062-.157.46-.47.46-.47" fill="#004a31"/><path d="M73.248 26.722s.146-.25.115-.313c-.042-.084.03-.23.157-.345.114-.167.354-.125.657-.136.146-.032.49-.168.772-.304V24.26c0 .052-.032.104-.074.104-.21.052-.21.46-.532.647-.26.19-.918.293-1.106.512-.24.24.115.407.156.48 0 .094-.083.177-.302.407-.22.218.156.312.156.312M84.99 41.232V.07h-4.86V45.79h48.998v-4.56H84.99z" fill="#004a31"/><path d="M95.003 36.387h33.786v-4.59H95.002V.044H90.12v36.342h4.883z" fill="#004a31"/><path d="M105.03 27.012h23.915v-4.6H105.03V.04h-4.884v26.972h4.883z" fill="#004a31"/><path d="M115.04 17.613h14.056v-4.57H115.04V0h-4.892v17.613h4.893z" fill="#004a31"/><path d="M125.032 8.213h3.756v-4.59h-3.756V.146h-4.873v8.065h4.872zM54.938 17.28v.502c.073-.073.2-.167.178-.26-.032-.126-.157-.157-.178-.24M143.073 59.884h11.258v50.857h28.027v10.34h-39.284V59.885zM241.388 121.08l-22.37-61.198H207.08l-21.776 61.197h12.03l4.592-13.868h22.33l4.84 13.867h12.292zm-36.02-24.22l7.566-22.704 7.72 22.705H205.37zM245.33 59.884h38.274v10.32h-27.056v14.503h23.373v10.35H256.55v26.024H245.33V59.885zM290.044 59.888h11.227v61.197h-11.226V59.888zM316.72 100.032c.522 3.172 1.962 11.718 12.188 11.718 7.826 0 10.945-4.54 10.945-8.452 0-5.134-3.912-6.26-14.21-8.995-5.563-1.523-17.833-4.893-17.833-18.364 0-6.7 3.996-17.102 20.326-17.102 10.924 0 20.88 4.653 21.38 18.49l-11.332.562c-.48-3.182-1.284-8.92-10.174-8.92-3.36 0-9.463 1.137-9.463 6.06 0 3.946 3.516 5.657 12.458 7.963 8.514 2.233 20.065 5.238 20.065 20.305 0 7.44-4.257 13.648-9.13 16.048-4.956 2.587-10.61 2.754-13.137 2.754-6.02 0-20.878-.594-23.05-20.983l10.968-1.085zM355.93 59.884h41.445v10.32H367.23V83.8h28.047v10.34H367.23v16.6h31.115v10.34H355.93V59.885zM400 131.04H.014v-3.642H400v3.64zM149.233 40.763v8.483h7.742c1.367 0 2.442-.187 3.214-.553 1.387-.7 2.086-2.024 2.086-3.975 0-1.66-.668-2.796-2.025-3.412-.75-.344-1.814-.532-3.18-.543h-7.837zm0-12.29v7.02h7.742c1.388 0 2.504-.26 3.36-.792.866-.51 1.294-1.46 1.294-2.795 0-1.482-.575-2.452-1.702-2.932-.99-.334-2.243-.5-3.767-.5h-6.927zm17.28-2.14c.98 1.356 1.47 2.974 1.47 4.862 0 1.95-.49 3.506-1.48 4.685-.544.668-1.358 1.273-2.433 1.816 1.64.595 2.85 1.523 3.684 2.807.824 1.283 1.24 2.838 1.24 4.664 0 1.888-.468 3.58-1.418 5.08-.605.992-1.346 1.827-2.254 2.505-1.022.783-2.212 1.305-3.6 1.597-1.387.29-2.89.427-4.486.427h-14.358V22.942h15.39c3.882.062 6.627 1.19 8.244 3.39M183.384 42.745h8.16l-4.028-12.52-4.132 12.52zm.438-19.804h7.513l11.28 31.836h-7.21l-2.12-6.543H181.57l-2.15 6.543h-6.95l11.354-31.835zM206.545 22.942h6.97l12.647 22.204V22.942h6.208v31.835h-6.657l-12.96-22.58v22.58h-6.208V22.942zM241.643 26.268c2.577-2.62 5.832-3.923 9.787-3.923 5.28 0 9.182 1.753 11.634 5.27 1.357 1.96 2.066 3.943 2.17 5.926h-6.667c-.407-1.523-.97-2.67-1.607-3.453-1.2-1.377-2.963-2.066-5.27-2.066-2.4 0-4.236.972-5.602 2.923-1.4 1.96-2.077 4.716-2.077 8.285 0 3.568.742 6.25 2.182 8.023 1.43 1.775 3.266 2.673 5.5 2.673 2.284 0 4.006-.773 5.226-2.296.647-.814 1.2-2.055 1.628-3.694h6.615c-.573 3.475-2.023 6.292-4.36 8.473-2.348 2.18-5.363 3.255-9.005 3.255-4.54 0-8.097-1.46-10.695-4.39-2.567-2.965-3.902-7.003-3.902-12.147 0-5.56 1.502-9.84 4.445-12.855M290.89 47.117c1.544-1.95 2.347-4.716 2.347-8.295 0-3.57-.803-6.334-2.347-8.285-1.524-1.95-3.642-2.922-6.27-2.922-2.63 0-4.738.97-6.304 2.91-1.565 1.953-2.347 4.707-2.347 8.297 0 3.58.78 6.344 2.346 8.295 1.566 1.94 3.673 2.91 6.303 2.91 2.628 0 4.746-.97 6.27-2.91m4.173 4.83c-2.42 2.484-5.895 3.715-10.444 3.715-4.55 0-8.025-1.23-10.436-3.714-3.213-3.036-4.83-7.408-4.83-13.126 0-5.833 1.617-10.216 4.83-13.137 2.41-2.473 5.885-3.715 10.435-3.715 4.548 0 8.023 1.242 10.443 3.715 3.204 2.92 4.8 7.304 4.8 13.137 0 5.718-1.596 10.09-4.8 13.126M148.336 157.975v7.71h7.022c1.252 0 2.233-.166 2.932-.51 1.273-.626 1.9-1.826 1.9-3.61 0-1.492-.617-2.525-1.848-3.1-.678-.312-1.65-.48-2.89-.49h-7.116zm0-11.164v6.376h7.022c1.262 0 2.285-.23 3.067-.71.773-.48 1.17-1.325 1.17-2.545 0-1.345-.512-2.232-1.556-2.66-.898-.303-2.025-.46-3.402-.46h-6.302zm15.713-1.94c.876 1.23 1.325 2.702 1.325 4.414 0 1.773-.45 3.182-1.346 4.257-.502.606-1.243 1.16-2.203 1.65 1.47.542 2.598 1.387 3.34 2.556.75 1.168 1.126 2.577 1.126 4.236 0 1.71-.428 3.256-1.284 4.612-.554.908-1.22 1.66-2.056 2.275-.918.708-2.014 1.2-3.276 1.45-1.242.26-2.61.385-4.09.385h-13.023v-28.913h13.982c3.527.052 6.02 1.075 7.502 3.078M179.374 159.784h7.397l-3.65-11.384-3.746 11.384zm.396-18h6.835l10.225 28.924h-6.553l-1.91-5.937h-10.642l-1.972 5.938h-6.313l10.33-28.923zM200.426 141.79h6.323l11.487 20.168v-20.17h5.634v28.914h-6.05l-11.77-20.514v20.514h-5.624V141.79zM232.304 144.81c2.327-2.38 5.29-3.568 8.89-3.568 4.81 0 8.327 1.596 10.57 4.79 1.22 1.794 1.878 3.59 1.972 5.394h-6.052c-.386-1.388-.876-2.43-1.47-3.14-1.076-1.264-2.662-1.89-4.78-1.89-2.17 0-3.86.887-5.102 2.672-1.252 1.773-1.868 4.278-1.868 7.512 0 3.245.647 5.676 1.962 7.294 1.315 1.617 2.974 2.42 5.008 2.42 2.077 0 3.642-.688 4.758-2.076.585-.74 1.086-1.857 1.46-3.35h6.022c-.5 3.152-1.826 5.708-3.955 7.68-2.15 1.983-4.863 2.974-8.192 2.974-4.1 0-7.356-1.336-9.714-4.007-2.348-2.68-3.527-6.365-3.527-11.03 0-5.05 1.346-8.94 4.017-11.675M279.946 146.91H264.65v6.135h14.034v5.03H264.65v7.44h16.016v5.195h-21.922v-28.923h21.202v5.123zM285.276 141.79h6.323l11.487 20.168v-20.17h5.624v28.914h-6.04l-11.78-20.514v20.514h-5.614V141.79zM335.4 141.79v5.122h-8.64v23.79h-6.084v-23.79h-8.692v-5.123H335.4zM344.977 146.813v7.773h6.51c1.294 0 2.254-.156 2.9-.48 1.15-.542 1.733-1.627 1.733-3.245 0-1.762-.563-2.94-1.68-3.536-.594-.334-1.523-.51-2.775-.51h-6.688zm12.49-4.278c1.074.46 1.97 1.137 2.712 2.024.615.73 1.105 1.543 1.46 2.43.355.887.532 1.9.532 3.047 0 1.367-.344 2.713-1.033 4.048-.7 1.326-1.858 2.265-3.423 2.807 1.314.543 2.264 1.304 2.807 2.296.563.99.834 2.494.834 4.518v1.95c0 1.326.063 2.213.157 2.683.188.74.542 1.303 1.127 1.647v.72h-6.678c-.178-.636-.324-1.148-.365-1.544-.168-.814-.273-1.638-.273-2.494l-.052-2.683c0-1.846-.334-3.078-.95-3.693-.594-.616-1.742-.918-3.432-.918h-5.916v11.33h-5.885v-28.912h13.825c1.972.03 3.495.282 4.55.74M386.46 163.748c1.407-1.764 2.107-4.278 2.107-7.534 0-3.245-.7-5.75-2.108-7.523-1.41-1.773-3.31-2.66-5.71-2.66-2.378 0-4.287.877-5.727 2.65-1.41 1.764-2.14 4.268-2.14 7.534 0 3.256.73 5.77 2.14 7.534 1.44 1.763 3.35 2.65 5.728 2.65 2.4 0 4.3-.887 5.71-2.65m3.766 4.392c-2.18 2.254-5.332 3.38-9.475 3.38-4.11 0-7.292-1.126-9.452-3.38-2.943-2.754-4.424-6.73-4.424-11.926 0-5.3 1.48-9.276 4.424-11.937 2.16-2.243 5.342-3.37 9.453-3.37 4.144 0 7.295 1.127 9.476 3.37 2.942 2.66 4.372 6.636 4.372 11.937 0 5.196-1.43 9.172-4.372 11.926" fill="#004a31"/></svg>