<?xml version="1.0" encoding="utf-8"?>
<!-- Generator: Adobe Illustrator 16.0.0, SVG Export Plug-In . SVG Version: 6.00 Build 0)  -->
<!DOCTYPE svg PUBLIC "-//W3C//DTD SVG 1.1//EN" "http://www.w3.org/Graphics/SVG/1.1/DTD/svg11.dtd">
<svg version="1.1" id="Capa_1" xmlns="http://www.w3.org/2000/svg" xmlns:xlink="http://www.w3.org/1999/xlink" x="0px" y="0px"
	 width="412px" height="214px" viewBox="0 0 412 214" enable-background="new 0 0 412 214" xml:space="preserve">
<g>
	<g>
		<g>
			<g>
				<path fill="#646569" d="M14.108,207.014H5.162l37.044-90.522h8.15L14.108,207.014z M63.479,175.271l2.981,7.422H27.693
					l2.851-7.422H63.479z M88.859,207.014h-8.944l-30.948-77.602l4.241-10.866L88.859,207.014z"/>
				<path fill="#646569" d="M106.457,207.014l-27.7-65.539h7.886l27.304,65.539H106.457z M134.158,141.475h8.019l-26.231,61.631
					l-3.712-9.014L134.158,141.475z"/>
				<path fill="#646569" d="M169.887,201.979c7.013,0,14.292-4.813,16.369-6.627v8.019c-2.607,1.987-8.354,5.301-18.821,5.301
					s-22.929-7.153-22.929-21.869c0-14.87,13.087-22.53,25.381-22.53c8.894,0,14.778,2.85,16.369,3.646v8.416
					c-2.431-1.633-8.964-5.303-16.369-5.303c-7.78,0-17.959,3.831-17.959,15.905S162.875,201.979,169.887,201.979z M189.702,161.156
					c0-9.262-6.139-14.977-17.099-14.977c-10.961,0-17.362,6.803-20.278,9.807l-4.705-5.168c4.032-4.086,10.685-11,25.249-11
					c14.563,0,23.856,7.381,23.856,21.074c0,13.69,0,46.121,0,46.121h-7.023C189.702,207.014,189.702,169.531,189.702,161.156z"/>
				<path fill="#646569" d="M211.189,141.475h7.289v65.539h-7.289V141.475z M240.746,139.818c8.269,0,13.495,3.377,15.438,4.971
					c1.944,1.588,6.296,6.133,6.296,13.252c0,7.121,0,48.973,0,48.973h-7.355c0,0,0-37.885,0-47.25
					c0-9.363-7.813-12.324-15.705-12.324c-7.894,0-15.331,4.814-17.495,6.894v-8.949
					C224.089,143.838,232.476,139.818,240.746,139.818z"/>
				<path fill="#646569" d="M321.786,141.475v6.229h-47.91v-6.229H321.786z M322.318,200.785v6.229h-48.441v-6.229H322.318z
					 M310.256,151.084h8.682l-33.928,46.32h-8.418L310.256,151.084z"/>
			</g>
		</g>
	</g>
	<g>
		<path fill="#D7891F" d="M340.191,92.813c-1.723-2.268-4.178-4.438-7.146-6.526c-3.455,14.234-16.604,27.085-9.812,34.438
			c2.943,3.188,10.771,1.729,20.437-2.522C345.064,109.588,345.811,100.221,340.191,92.813z"/>
		<path fill="#D7891F" d="M401.793,57.725C386.075,29.149,296.418-3.551,280.084,9.149c-7.056,5.484,5.297,16.508,19.895,28.951
			C333.688,34.94,385.561,41.822,401.793,57.725z"/>
		<path fill="#E1A700" d="M332.641,72.942c-3.814-10.671-19.193-23.362-32.662-34.842c-14.444,1.354-25.558,4.554-29.095,9.677
			c-8.589,12.432,40.493,23.277,62.161,38.51C334.102,81.929,334.25,77.442,332.641,72.942z"/>
		<path fill="#E1A700" d="M402.229,58.159c-0.141-0.146-0.287-0.29-0.436-0.434c0.149,0.274,0.297,0.548,0.436,0.82
			c7.857,15.673-32.199,48.06-58.559,59.656c-1.664,10.275-4.257,19.48,1.918,23.012C359.629,149.244,418.909,75.356,402.229,58.159
			z"/>
		<path fill="#B5002C" d="M402.229,58.545c-0.139-0.272-0.285-0.546-0.436-0.82C385.561,41.822,333.688,34.94,299.979,38.1
			c13.469,11.48,28.848,24.171,32.662,34.842c1.609,4.5,1.461,8.986,0.404,13.345c2.969,2.088,5.424,4.259,7.146,6.526
			c5.619,7.407,4.873,16.774,3.479,25.388C370.029,106.605,410.086,74.219,402.229,58.545z"/>
	</g>
</g>
</svg>
